<svg width="1342" height="1024" viewBox="0 0 1342 1024" fill="none" xmlns="http://www.w3.org/2000/svg">
<g filter="url(#filter0_d)">
<path fill-rule="evenodd" clip-rule="evenodd" d="M42.5051 581.367C23.1893 426.389 142.595 292.239 255.199 184.048C348.363 94.5339 477.831 83.6659 601.019 44.7407C768.055 -8.03988 928.123 -144.758 1090.91 -80.0223C1275.77 -6.50665 1432.74 178.604 1437.8 377.512C1442.67 568.597 1246.82 686.615 1113.91 823.959C1006.56 934.894 906.216 1066.17 753.022 1085.14C602.088 1103.83 470.869 1006.91 346.792 918.932C218.329 827.849 61.9837 737.65 42.5051 581.367Z" fill="url(#paint0_linear)" fill-opacity="0.5"/>
</g>
<defs>
<filter id="filter0_d" x="0.435913" y="-117.073" width="1477.46" height="1264.55" filterUnits="userSpaceOnUse" color-interpolation-filters="sRGB">
<feFlood flood-opacity="0" result="BackgroundImageFix"/>
<feColorMatrix in="SourceAlpha" type="matrix" values="0 0 0 0 0 0 0 0 0 0 0 0 0 0 0 0 0 0 127 0" result="hardAlpha"/>
<feOffset dy="20"/>
<feGaussianBlur stdDeviation="20"/>
<feColorMatrix type="matrix" values="0 0 0 0 0 0 0 0 0 0 0 0 0 0 0 0 0 0 0.6 0"/>
<feBlend mode="normal" in2="BackgroundImageFix" result="effect1_dropShadow"/>
<feBlend mode="normal" in="SourceGraphic" in2="effect1_dropShadow" result="shape"/>
</filter>
<linearGradient id="paint0_linear" x1="47.1858" y1="613.8" x2="1445.34" y2="409.528" gradientUnits="userSpaceOnUse">
<stop stop-color="#FF0F7B" stop-opacity="0.95"/>
<stop offset="1" stop-color="#F89B29" stop-opacity="0.95"/>
</linearGradient>
</defs>
</svg>
