<svg width="1165" height="1024" viewBox="0 0 1165 1024" fill="none" xmlns="http://www.w3.org/2000/svg">
<g filter="url(#filter0_d)">
<path fill-rule="evenodd" clip-rule="evenodd" d="M-360.495 469.367C-379.811 314.389 -260.405 180.239 -147.801 72.0476C-54.6365 -17.466 74.8312 -28.3341 198.019 -67.2593C365.055 -120.04 525.123 -256.758 687.908 -192.022C872.77 -118.507 1029.74 66.6044 1034.8 265.512C1039.67 456.597 843.82 574.615 710.911 711.959C603.557 822.894 503.216 954.173 350.022 973.139C199.088 991.825 67.8694 894.906 -56.2082 806.932C-184.671 715.849 -341.016 625.65 -360.495 469.367Z" fill="url(#paint0_linear)"/>
</g>
<defs>
<filter id="filter0_d" x="-478" y="-285" width="1642.53" height="1409.33" filterUnits="userSpaceOnUse" color-interpolation-filters="sRGB">
<feFlood flood-opacity="0" result="BackgroundImageFix"/>
<feColorMatrix in="SourceAlpha" type="matrix" values="0 0 0 0 0 0 0 0 0 0 0 0 0 0 0 0 0 0 127 0" result="hardAlpha"/>
<feOffset dy="20"/>
<feGaussianBlur stdDeviation="20"/>
<feColorMatrix type="matrix" values="0 0 0 0 0 0 0 0 0 0 0 0 0 0 0 0 0 0 0.6 0"/>
<feBlend mode="normal" in2="BackgroundImageFix" result="effect1_dropShadow"/>
<feBlend mode="normal" in="SourceGraphic" in2="effect1_dropShadow" result="shape"/>
</filter>
<linearGradient id="paint0_linear" x1="-355.814" y1="501.8" x2="1042.34" y2="297.528" gradientUnits="userSpaceOnUse">
<stop stop-color="#FF0F7B" stop-opacity="0.95"/>
<stop offset="1" stop-color="#F89B29" stop-opacity="0.95"/>
</linearGradient>
</defs>
</svg>
