<svg width="933" height="1024" viewBox="0 0 933 1024" fill="none" xmlns="http://www.w3.org/2000/svg">
<g filter="url(#filter0_d)">
<path fill-rule="evenodd" clip-rule="evenodd" d="M641.269 -306.943C797.412 -303.651 912.891 -166.106 1003.67 -39.0446C1078.77 66.0821 1070.81 195.761 1091.52 323.282C1119.59 496.193 1231.74 674.345 1144.15 826.061C1044.68 998.354 838.819 1126.92 641.269 1103.17C451.489 1080.36 363.023 869.506 246.337 718.137C152.086 595.874 36.6928 477.608 40.0725 323.282C43.4024 171.232 158.274 55.403 263.261 -54.6531C371.958 -168.599 483.812 -310.262 641.269 -306.943Z" fill="url(#paint0_linear)"/>
</g>
<defs>
<filter id="filter0_d" x="0" y="-327" width="1217" height="1493" filterUnits="userSpaceOnUse" color-interpolation-filters="sRGB">
<feFlood flood-opacity="0" result="BackgroundImageFix"/>
<feColorMatrix in="SourceAlpha" type="matrix" values="0 0 0 0 0 0 0 0 0 0 0 0 0 0 0 0 0 0 127 0" result="hardAlpha"/>
<feOffset dy="20"/>
<feGaussianBlur stdDeviation="20"/>
<feColorMatrix type="matrix" values="0 0 0 0 0 0 0 0 0 0 0 0 0 0 0 0 0 0 0.6 0"/>
<feBlend mode="normal" in2="BackgroundImageFix" result="effect1_dropShadow"/>
<feBlend mode="normal" in="SourceGraphic" in2="effect1_dropShadow" result="shape"/>
</filter>
<linearGradient id="paint0_linear" x1="608.5" y1="-307" x2="608.5" y2="1106" gradientUnits="userSpaceOnUse">
<stop stop-color="#FF0F7B" stop-opacity="0.95"/>
<stop offset="1" stop-color="#F89B29" stop-opacity="0.95"/>
</linearGradient>
</defs>
</svg>
