<svg width="663" height="497" viewBox="0 0 663 497" fill="none" xmlns="http://www.w3.org/2000/svg">
<g opacity="0.4">
<path opacity="0.4" d="M13.3589 283.868C26.4531 251.999 77.6394 242.311 99.3217 238.232C218.445 215.71 284.765 292.112 346.496 259.137C381.272 240.611 364.181 214.351 418.599 168.799C426.676 162 456.435 137.695 527.858 124.097C584.827 113.304 638.138 103.107 651.998 125.372C667.048 149.593 614.841 179.252 609.994 252.509C606.508 305.285 630.316 340.977 615.096 351.685C597.155 364.264 555.662 321.006 535.001 335.708C523.437 343.952 534.15 361.884 524.712 376.076C499.204 414.234 417.323 388.909 277.539 394.348C161.561 398.852 132.397 419.588 83.4213 394.348C38.0168 371.063 -1.43584 319.987 13.3589 283.868Z" fill="#B5CDFB"/>
</g>
<path d="M134.384 280.199H23.168V291.416H134.384V280.199Z" fill="#9F8AFF"/>
<path d="M94.3349 268.896H9.73315V280.114H94.3349V268.896Z" fill="#9F8AFF"/>
<path d="M51.9916 291.418H9.73315V302.635H51.9916V291.418Z" fill="#9F8AFF"/>
<path d="M89.8281 279.774H8.28735V280.624H89.8281V279.774Z" fill="#3913B8"/>
<path d="M54.8818 290.993H30.8191V291.842H54.8818V290.993Z" fill="#3913B8"/>
<path d="M23.5922 280.199H22.7419V291.416H23.5922V280.199Z" fill="#3913B8"/>
<path d="M52.4171 268.896H51.5669V280.114H52.4171V268.896Z" fill="#3913B8"/>
<path d="M79.1994 280.199H78.3491V291.416H79.1994V280.199Z" fill="#3913B8"/>
<path d="M32.35 302.211H8.28735V303.061H32.35V302.211Z" fill="#3913B8"/>
<g opacity="0.4">
<path opacity="0.4" d="M217.852 479.658C307.966 479.658 381.019 474.407 381.019 467.93C381.019 461.453 307.966 456.202 217.852 456.202C127.737 456.202 54.6846 461.453 54.6846 467.93C54.6846 474.407 127.737 479.658 217.852 479.658Z" fill="#B5CDFB"/>
</g>
<g opacity="0.4">
<path opacity="0.4" d="M598.007 477.278L597.496 475.663C602.938 473.964 608.975 474.304 614.842 474.729C620.114 475.069 625.13 475.324 629.721 474.304L630.147 475.918C625.3 477.023 619.944 476.768 614.757 476.429C609.06 476.088 603.193 475.749 598.007 477.278Z" fill="#3913B8"/>
</g>
<g opacity="0.4">
<path opacity="0.4" d="M641.286 481.358H610.591V483.058H641.286V481.358Z" fill="#3913B8"/>
</g>
<g opacity="0.4">
<path opacity="0.4" d="M488.579 475.919C464.431 475.919 458.734 473.114 456.608 472.009C451.167 469.375 450.742 467.929 450.572 467.42C450.402 466.995 450.486 466.485 450.657 466.145C451.422 464.785 453.548 464.701 460.009 464.701C461.795 464.701 464.006 464.615 466.472 464.615C470.298 464.531 474.209 464.446 478.036 464.446C481.182 464.446 484.327 464.36 487.473 464.276H487.643C492.575 464.19 496.741 464.106 498.697 466.145C499.292 466.74 500.057 468.1 499.378 469.375C498.102 471.584 493.085 471.669 487.813 471.5C483.052 471.329 475.399 470.225 474.465 468.95C474.295 468.695 474.209 468.44 474.295 468.1C474.465 467.165 474.634 466.4 492.065 466.995L491.98 468.695C484.242 468.44 480.161 468.44 478.036 468.61C480.331 469.12 484.072 469.715 487.984 469.884C495.551 470.14 497.592 469.375 498.017 468.61C498.272 468.185 497.592 467.42 497.592 467.42C496.146 465.89 491.895 465.975 487.729 466.06H487.559C484.413 466.145 481.266 466.145 478.12 466.231C474.295 466.315 470.383 466.315 466.557 466.4C464.006 466.485 461.88 466.485 460.095 466.485C455.929 466.57 452.612 466.57 452.272 467.08C452.272 467.335 453.292 468.61 457.459 470.65C459.84 471.839 467.067 475.409 503.288 474.049C506.604 473.964 514.342 473.624 522.93 470.904C528.457 469.12 531.347 467.845 531.347 467.08C531.178 466.74 529.477 464.956 508.815 463.171C494.616 461.981 479.821 461.556 464.941 461.811V460.112C479.906 459.771 494.701 460.281 508.985 461.471C532.538 463.426 532.878 465.551 533.048 466.825C533.388 469.12 529.052 470.734 523.44 472.519C514.682 475.323 506.775 475.578 503.374 475.748C497.762 475.833 492.83 475.919 488.579 475.919Z" fill="#3913B8"/>
</g>
<g opacity="0.4">
<path opacity="0.4" d="M323.786 447.245C299.637 447.245 293.941 444.441 291.815 443.336C286.373 440.701 285.948 439.256 285.778 438.747C285.608 438.322 285.694 437.812 285.864 437.472C286.629 436.112 288.754 436.027 295.216 436.027C297.002 436.027 299.212 435.942 301.679 435.942C305.505 435.857 309.416 435.772 313.242 435.772C316.388 435.772 319.534 435.687 322.68 435.603H322.85C327.782 435.517 331.948 435.432 333.904 437.472C334.669 438.237 335.264 439.511 334.584 440.701C333.309 442.911 328.292 442.996 323.021 442.826C318.259 442.656 310.606 441.551 309.671 440.276C309.501 440.022 309.416 439.767 309.501 439.427C309.671 438.492 309.841 437.727 327.271 438.322L327.187 440.022C319.449 439.767 315.368 439.767 313.242 439.936C315.538 440.447 319.279 441.041 323.191 441.211C330.758 441.466 332.798 440.701 333.223 439.936C333.479 439.511 332.798 438.747 332.798 438.747C331.353 437.217 327.101 437.302 322.935 437.387H322.765C319.619 437.472 316.474 437.472 313.327 437.557C309.501 437.642 305.59 437.642 301.763 437.727C299.212 437.812 297.087 437.812 295.216 437.812C291.05 437.897 287.734 437.897 287.393 438.406C287.393 438.662 288.415 439.936 292.581 441.976C294.962 443.166 302.274 446.735 338.411 445.375C341.982 445.205 349.464 444.95 358.051 442.231C363.578 440.447 366.47 439.172 366.47 438.406C366.299 438.067 364.598 436.282 343.937 434.498C329.738 433.308 314.943 432.883 300.063 433.137V431.438C315.027 431.098 329.822 431.608 344.107 432.798C367.66 434.753 367.999 436.877 368.169 438.152C368.51 440.447 364.173 442.061 358.562 443.846C349.804 446.65 341.896 446.905 338.495 447.075C332.968 447.16 328.037 447.245 323.786 447.245Z" fill="#3913B8"/>
</g>
<path d="M560.087 293.713H449.468V301.276H560.087V293.713Z" fill="#9F8AFF"/>
<path d="M533.217 286.149H476.42V293.712H533.217V286.149Z" fill="#9F8AFF"/>
<path d="M489.259 293.287H473.104V294.137H489.259V293.287Z" fill="#3913B8"/>
<path d="M485.858 293.713H485.008V301.276H485.858V293.713Z" fill="#3913B8"/>
<path d="M505.245 286.149H504.395V293.712H505.245V286.149Z" fill="#3913B8"/>
<path d="M523.185 293.713H522.334V301.276H523.185V293.713Z" fill="#3913B8"/>
<path d="M523.354 293.287H515.787V294.137H523.354V293.287Z" fill="#3913B8"/>
<g opacity="0.8">
<path opacity="0.8" d="M126.276 78.5315H15.6558V86.0953H126.276V78.5315Z" fill="#B5CDFB"/>
<path opacity="0.8" d="M99.409 70.9681H42.6111V78.5317H99.409V70.9681Z" fill="#B5CDFB"/>
</g>
<g opacity="0.46">
<g opacity="0.46">
<path opacity="0.5" d="M617.308 141.25H414.094C414.094 119.239 423.021 102.412 437.39 91.1092C451.76 79.7213 471.657 73.9424 493.678 73.9424H505.838L504.222 14.1133L512.725 13.9434L514.34 73.8574H537.723C581.682 73.8574 617.308 97.3134 617.308 141.25Z" fill="#B5CDFB"/>
</g>
</g>
<path d="M303.048 167.935C309.669 167.935 315.037 162.57 315.037 155.953C315.037 149.334 309.669 143.97 303.048 143.97C296.427 143.97 291.06 149.334 291.06 155.953C291.06 162.57 296.427 167.935 303.048 167.935Z" fill="#B5CDFB"/>
<path d="M227.716 185.271C232.881 185.271 237.069 181.086 237.069 175.923C237.069 170.76 232.881 166.575 227.716 166.575C222.55 166.575 218.363 170.76 218.363 175.923C218.363 181.086 222.55 185.271 227.716 185.271Z" fill="#9F8AFF"/>
<path d="M227.713 183.317C222.357 183.317 217.935 178.898 217.935 173.544C217.935 168.19 222.357 163.771 227.713 163.771C233.071 163.771 237.492 168.19 237.492 173.544C237.492 178.898 233.155 183.317 227.713 183.317ZM227.713 164.705C222.782 164.705 218.785 168.7 218.785 173.628C218.785 178.558 222.782 182.552 227.713 182.552C232.645 182.552 236.642 178.558 236.642 173.628C236.642 168.7 232.645 164.705 227.713 164.705Z" fill="#3913B8"/>
<path d="M223.975 170.91C224.4 173.204 224.995 175.499 225.335 177.793C225.42 178.134 225.845 178.388 226.1 178.134C227.121 177.454 228.056 176.009 228.907 175.413C230.182 174.394 231.372 173.29 232.648 172.185C232.988 171.844 232.817 171.335 232.308 171.335C230.862 171.249 229.417 170.91 228.056 170.74C227.291 170.569 225.675 170.569 224.655 170.315C224.23 170.23 223.89 170.569 223.975 170.91Z" fill="#3913B8"/>
<path d="M252.714 121.704L251.949 120.938C249.398 118.474 244.891 114.65 243.531 114.65C243.531 114.65 243.531 114.65 243.446 114.65L216.068 116.86C213.517 117.03 210.966 116.18 209.095 114.48C207.225 112.695 206.119 110.231 206.205 107.681L206.289 95.1881C206.289 92.6385 207.395 90.1742 209.35 88.4744C211.221 86.7747 213.857 85.9248 216.407 86.18L243.701 88.8994C248.463 89.3243 252.034 93.3185 251.949 98.0781L251.864 105.726C251.864 108.191 252.629 120.599 252.629 120.769L252.714 121.704ZM243.531 113.715C245.402 113.715 249.823 117.624 251.779 119.494C251.609 116.35 251.013 107.596 251.099 105.472L251.184 97.823C251.184 93.4883 247.953 89.9191 243.701 89.4941L216.407 86.7747C214.112 86.5196 211.731 87.2849 210.031 88.8994C208.33 90.4293 207.31 92.7238 207.31 95.0183L207.225 107.511C207.225 109.806 208.16 112.1 209.861 113.63C211.561 115.245 213.857 116.01 216.237 115.839L243.616 113.63C243.446 113.715 243.446 113.715 243.531 113.715Z" fill="#3913B8"/>
<path d="M213.431 106.235H222.954C223.634 106.235 224.144 105.471 223.804 104.876C223.124 103.431 221.509 101.307 218.447 101.307C214.536 101.307 212.75 103.346 212.496 105.216C212.411 105.81 212.836 106.235 213.431 106.235Z" fill="#3913B8"/>
<path d="M218.193 101.392C219.461 101.392 220.489 100.365 220.489 99.0978C220.489 97.8305 219.461 96.8033 218.193 96.8033C216.925 96.8033 215.897 97.8305 215.897 99.0978C215.897 100.365 216.925 101.392 218.193 101.392Z" fill="#3913B8"/>
<path d="M242.425 97.9929H229.842C229.586 97.9929 229.417 97.8231 229.417 97.568C229.417 97.3137 229.586 97.1431 229.842 97.1431H242.425C242.681 97.1431 242.851 97.3137 242.851 97.568C242.851 97.8231 242.681 97.9929 242.425 97.9929Z" fill="#3913B8"/>
<path d="M242.425 101.646H229.842C229.586 101.646 229.417 101.476 229.417 101.222C229.417 100.967 229.586 100.797 229.842 100.797H242.425C242.681 100.797 242.851 100.967 242.851 101.222C242.851 101.476 242.681 101.646 242.425 101.646Z" fill="#3913B8"/>
<path d="M242.425 105.302H229.842C229.586 105.302 229.417 105.131 229.417 104.877C229.417 104.622 229.586 104.452 229.842 104.452H242.425C242.681 104.452 242.851 104.622 242.851 104.877C242.851 105.131 242.681 105.302 242.425 105.302Z" fill="#3913B8"/>
<path d="M365.544 72.9228C365.203 72.9228 364.863 72.8378 364.608 72.5828C364.098 72.1579 364.013 71.5631 364.268 70.9682C367.329 63.9994 369.029 59.2403 369.029 58.0506L368.945 50.4019C368.945 45.6428 372.431 41.6486 377.193 41.2236C377.447 41.2236 397.599 40.1188 407.292 40.9687C411.118 41.3086 412.903 45.5578 412.394 52.5266C411.713 60.2601 408.312 69.2684 404.996 69.3534C404.911 69.3534 404.911 69.3534 404.826 69.3534L377.447 67.1438C377.107 67.1438 375.321 67.4838 366.309 72.8378C366.053 72.9228 365.799 72.9228 365.544 72.9228ZM397.683 41.4786C388.161 41.4786 377.447 42.0735 377.362 42.0735C373.111 42.4983 369.88 46.0677 369.88 50.4019L369.965 58.0506C369.965 59.8352 367.329 66.294 365.119 71.3081C365.033 71.5631 365.119 71.818 365.288 71.988C365.458 72.1579 365.714 72.2429 365.969 72.0729C372.601 68.1637 376.512 66.2091 377.618 66.294L404.996 68.5036H405.081C407.632 68.5036 411.033 60.2601 411.628 52.5266C411.883 49.4671 411.969 42.2434 407.377 41.8185C404.571 41.5636 401.17 41.4786 397.683 41.4786Z" fill="#3913B8"/>
<path d="M398.96 61.5355C402.622 61.5355 405.592 58.5677 405.592 54.9068C405.592 51.2458 402.622 48.278 398.96 48.278C395.297 48.278 392.327 51.2458 392.327 54.9068C392.327 58.5677 395.297 61.5355 398.96 61.5355Z" fill="#9F8AFF"/>
<path d="M348.366 208.133C350.009 208.133 351.342 206.801 351.342 205.158C351.342 203.516 350.009 202.184 348.366 202.184C346.722 202.184 345.39 203.516 345.39 205.158C345.39 206.801 346.722 208.133 348.366 208.133Z" fill="#3913B8"/>
<path d="M348.368 213.743C343.606 213.743 339.779 209.918 339.779 205.16C339.779 200.4 343.606 196.576 348.368 196.576C353.129 196.576 356.955 200.4 356.955 205.16C356.955 209.918 353.129 213.743 348.368 213.743ZM348.368 197.511C344.116 197.511 340.63 200.996 340.63 205.244C340.63 209.493 344.116 212.978 348.368 212.978C352.619 212.978 356.105 209.493 356.105 205.244C356.105 200.996 352.619 197.511 348.368 197.511Z" fill="#3913B8"/>
<path d="M389.776 52.7816H377.192C376.937 52.7816 376.767 52.6117 376.767 52.3567C376.767 52.1017 376.937 51.9318 377.192 51.9318H389.776C390.031 51.9318 390.201 52.1017 390.201 52.3567C390.201 52.6117 390.031 52.7816 389.776 52.7816Z" fill="#3913B8"/>
<path d="M389.776 56.4355H377.192C376.937 56.4355 376.767 56.2655 376.767 56.0106C376.767 55.7557 376.937 55.5857 377.192 55.5857H389.776C390.031 55.5857 390.201 55.7557 390.201 56.0106C390.201 56.2655 390.031 56.4355 389.776 56.4355Z" fill="#3913B8"/>
<path d="M324.474 92.2141H279.58V41.9036H324.474V92.2141ZM280.43 91.3643H323.624V42.7534H280.43V91.3643Z" fill="#3913B8"/>
<path d="M330.171 39.8635H273.798V47.4271H330.171V39.8635Z" fill="#3913B8"/>
<path d="M277.372 44.7069C277.982 44.7069 278.477 44.2123 278.477 43.6021C278.477 42.9919 277.982 42.4973 277.372 42.4973C276.762 42.4973 276.267 42.9919 276.267 43.6021C276.267 44.2123 276.762 44.7069 277.372 44.7069Z" fill="#AFE3E2"/>
<path d="M282.555 44.7069C283.166 44.7069 283.661 44.2123 283.661 43.6021C283.661 42.9919 283.166 42.4973 282.555 42.4973C281.945 42.4973 281.45 42.9919 281.45 43.6021C281.45 44.2123 281.945 44.7069 282.555 44.7069Z" fill="#F6A7AB"/>
<g opacity="0.9">
<path opacity="0.9" d="M330.852 67.7378H290.379C289.359 67.7378 288.508 66.888 288.508 65.8682V55.5851C288.508 54.5652 289.359 53.7155 290.379 53.7155H330.852C331.872 53.7155 332.722 54.5652 332.722 55.5851V65.8682C332.722 66.888 331.872 67.7378 330.852 67.7378Z" fill="#B5CDFB"/>
</g>
<g opacity="0.9">
<path opacity="0.9" d="M330.852 85.585H290.379C289.359 85.585 288.508 84.7351 288.508 83.7154V73.4323C288.508 72.4124 289.359 71.5626 290.379 71.5626H330.852C331.872 71.5626 332.722 72.4124 332.722 73.4323V83.7154C332.722 84.7351 331.872 85.585 330.852 85.585Z" fill="#9F8AFF"/>
</g>
<path d="M260.28 147.198C257.049 147.198 254.499 146.009 253.393 145.329C250.672 143.8 248.631 141.335 247.441 139.04C246.335 138.956 245.23 138.785 244.38 138.531C238.088 136.746 235.112 129.692 234.177 126.802L235.027 126.547C235.962 129.352 238.684 136.151 244.635 137.765C245.231 137.935 246.08 138.106 247.016 138.19C246.591 137.34 246.335 136.491 246.165 135.726C245.826 134.196 245.996 133.007 246.591 132.241C247.441 131.137 249.227 130.712 250.417 131.307C251.182 131.732 251.777 132.582 252.118 133.687C252.457 135.131 252.202 136.576 251.437 137.51C250.672 138.445 249.567 138.87 248.291 138.956C249.481 141.08 251.352 143.204 253.733 144.479C255.094 145.244 258.835 147.029 263.256 145.839C267.847 144.564 271.504 140.74 272.694 135.641L273.544 135.81C272.269 141.165 268.442 145.329 263.511 146.604C262.406 147.029 261.3 147.198 260.28 147.198ZM249.141 131.902C248.461 131.902 247.696 132.157 247.271 132.751C246.846 133.346 246.76 134.366 247.016 135.556C247.186 136.406 247.526 137.256 247.951 138.19C249.056 138.19 250.162 137.935 250.842 137.085C251.437 136.321 251.607 135.131 251.352 133.941C251.182 133.091 250.672 132.412 250.162 132.071C249.822 131.987 249.481 131.902 249.141 131.902Z" fill="#3913B8"/>
<path d="M338.588 113.035L338.078 112.356C343.35 108.532 351.938 101.818 355.509 96.0387C353.978 95.7835 352.533 95.1035 351.768 93.8287C351.002 92.3841 351.087 90.0051 352.618 88.7303C354.063 87.4555 356.444 87.3702 357.549 88.4751C358.824 89.75 358.06 92.2142 357.634 93.4891C357.464 94.0838 357.209 94.7639 356.869 95.3586C358.229 95.4439 359.505 95.3586 360.355 95.3586C368.008 94.9337 377.361 90.5145 381.527 85.3308C383.228 83.2906 383.907 81.1664 383.653 79.3817C383.398 77.597 382.037 75.8973 379.741 74.3676L380.252 73.6877C382.803 75.3874 384.248 77.2571 384.588 79.2967C384.928 81.3363 384.078 83.6311 382.292 85.9255C377.871 91.3644 368.518 95.8689 360.441 96.2938C359.505 96.3783 357.974 96.4636 356.444 96.2938C352.788 102.158 343.945 109.126 338.588 113.035ZM355.339 88.4751C354.574 88.4751 353.724 88.7303 353.128 89.2397C351.938 90.2594 351.852 92.1298 352.533 93.3192C353.128 94.4242 354.488 94.9337 355.934 95.1888C356.274 94.5087 356.614 93.8287 356.784 93.1494C357.124 92.0444 357.804 89.9198 356.869 88.9846C356.529 88.645 355.934 88.4751 355.339 88.4751Z" fill="#3913B8"/>
<path d="M382.804 132.156C381.103 132.156 379.488 131.817 378.043 131.137C376.512 130.457 374.981 129.267 373.706 127.992C369.54 130.117 362.993 131.307 358.402 131.901L358.316 131.051C364.949 130.117 369.965 128.842 373.111 127.312C371.326 125.188 370.306 122.808 371.071 121.109C371.751 119.579 373.961 118.644 375.492 119.154C377.193 119.834 377.873 122.298 377.703 123.743C377.532 125.188 376.342 126.462 374.472 127.482C375.577 128.672 376.937 129.692 378.383 130.287C383.229 132.496 389.862 130.627 395.643 125.528L396.239 126.123C391.902 130.117 387.056 132.156 382.804 132.156ZM374.472 119.919C373.452 119.919 372.176 120.599 371.836 121.533C371.241 122.808 372.176 125.018 373.877 126.973C375.662 125.953 376.682 124.848 376.767 123.743C376.937 122.554 376.342 120.513 375.067 120.088C374.981 120.004 374.727 119.919 374.472 119.919Z" fill="#3913B8"/>
<path d="M227.033 64.9344L226.438 64.3395C230.434 60.3452 234.94 57.2008 239.958 54.8212C242.763 53.5465 245.739 52.4417 248.715 51.7618L248.885 52.6116C245.909 53.2915 243.018 54.3114 240.297 55.6711C235.366 57.9656 230.944 61.0251 227.033 64.9344Z" fill="#3913B8"/>
<path d="M225.672 71.2231L225.077 70.6282C229.073 66.6339 233.58 63.4895 238.596 61.1099C241.402 59.8352 244.378 58.7304 247.354 58.0505L247.524 58.9003C244.548 59.5802 241.657 60.6001 238.936 61.9598C234.005 64.1694 229.584 67.3138 225.672 71.2231Z" fill="#3913B8"/>
<g opacity="0.4">
<path opacity="0.4" d="M377.873 464.36C377.193 464.36 376.682 464.02 376.682 463.51L374.472 297.111H381.359L379.149 463.51C379.149 464.02 378.553 464.36 377.873 464.36Z" fill="#3913B8"/>
</g>
<g opacity="0.4">
<path opacity="0.4" d="M328.471 464.36C327.791 464.36 327.28 464.02 327.28 463.51L325.069 297.111H331.957L329.746 463.51C329.661 464.02 329.151 464.36 328.471 464.36Z" fill="#3913B8"/>
</g>
<path d="M355.851 232.438L290.125 265.412L289.785 264.732C288.85 262.862 289.615 260.568 291.485 259.633L350.409 230.059C352.28 229.124 354.575 229.888 355.511 231.758L355.851 232.438Z" fill="#3913B8"/>
<path d="M290.209 265.413L295.736 271.021L361.462 237.962L355.851 232.438L346.923 234.393L292.335 262.268L290.209 265.413Z" fill="#3913B8"/>
<path d="M355.513 233.202L385.698 150.513C383.317 149.663 380.766 150.852 379.916 153.232L352.793 227.424C351.942 229.803 353.218 232.352 355.513 233.202Z" fill="#3913B8"/>
<path d="M385.697 150.513L395.56 151.788L360.104 237.792L355.513 233.203L356.448 224.11L382.891 153.063L385.697 150.513Z" fill="#3913B8"/>
<path fill-rule="evenodd" clip-rule="evenodd" d="M350.407 230.058C351.106 229.708 351.864 229.596 352.587 229.69C352.462 228.958 352.517 228.182 352.788 227.424L379.912 153.232C380.762 150.852 383.313 149.663 385.694 150.513H385.693H385.694L395.557 151.788L360.444 236.96L361.461 237.961L295.735 271.02L290.208 265.411L290.251 265.347L290.123 265.411L289.784 264.731C288.848 262.861 289.614 260.567 291.484 259.632L350.407 230.058Z" fill="white" fill-opacity="0.57"/>
<path d="M371.92 287.254H297.521C293.355 287.254 289.868 283.854 289.868 279.605C289.868 275.356 293.27 271.956 297.521 271.956C298.032 271.956 298.371 272.297 298.371 272.806C298.371 273.316 298.032 273.656 297.521 273.656C294.29 273.656 291.569 276.291 291.569 279.605C291.569 282.835 294.205 285.554 297.521 285.554H371.92C372.43 285.554 372.77 285.894 372.77 286.404C372.77 286.914 372.345 287.254 371.92 287.254Z" fill="#9F8AFF"/>
<path d="M262.832 286.914H260.025V279.52L262.832 278.84V286.914Z" fill="#9F8AFF"/>
<path d="M375.32 464.785C374.385 464.785 373.705 464.276 373.705 463.51L371.409 296.687H379.232L376.936 463.51C377.021 464.276 376.256 464.785 375.32 464.785ZM372.344 297.621L374.555 463.51C374.555 463.681 374.895 463.935 375.32 463.935C375.745 463.935 376.086 463.681 376.086 463.51L378.296 297.621H372.344Z" fill="#3913B8"/>
<path d="M325.92 464.785C324.984 464.785 324.304 464.276 324.304 463.51L322.008 296.687H329.831L327.535 463.51C327.535 464.276 326.77 464.785 325.92 464.785ZM322.858 297.621L325.069 463.51C325.069 463.681 325.409 463.935 325.834 463.935C326.26 463.935 326.6 463.681 326.6 463.51L328.81 297.621H322.858Z" fill="#3913B8"/>
<path d="M386.204 298.556H209.604C207.478 298.556 205.862 296.857 205.862 294.817V293.372C205.862 291.248 207.562 289.633 209.604 289.633H386.12C388.246 289.633 389.861 291.333 389.861 293.372V294.817C389.946 296.942 388.246 298.556 386.204 298.556Z" fill="#3913B8"/>
<path d="M361.46 237.961L295.733 270.935L295.394 270.255C294.459 268.386 295.224 266.091 297.094 265.156L356.018 235.582C357.889 234.647 360.184 235.411 361.119 237.281L361.46 237.961Z" fill="#3913B8"/>
<path d="M361.463 237.963L396.239 152.128C393.943 151.194 391.307 152.298 390.372 154.593L358.997 232.099C358.062 234.479 359.167 237.027 361.463 237.963Z" fill="#3913B8"/>
<path d="M270.229 287.338H266.488V278.499L270.229 277.48V287.338ZM267.423 286.489H269.464V278.585L267.423 279.095V286.489Z" fill="#3913B8"/>
<path d="M334.338 286.829H331.192L324.475 259.294L328.216 257.339L334.338 286.829ZM331.873 285.979H333.318L327.621 258.614L325.495 259.719L331.873 285.979Z" fill="#9F8AFF"/>
<path d="M365.458 237.878L296.331 271.616C295.481 272.041 294.461 271.871 293.866 271.191L284.513 261.164C283.832 260.569 282.897 261.419 283.407 262.099L292.165 274.676C292.76 275.526 293.95 275.866 294.886 275.356L366.564 239.918C366.989 239.748 367.244 239.323 367.244 238.898C367.159 238.048 366.224 237.538 365.458 237.878Z" fill="#9F8AFF"/>
<path d="M313.418 250.966C313.163 250.541 313.078 250.116 314.013 249.521C314.864 249.012 315.289 249.266 315.544 249.691" fill="#3913B8"/>
<path d="M298.198 257.424L308.231 252.071L312.482 255.724L302.024 261.248L298.198 257.424Z" fill="#3913B8"/>
<path d="M314.524 252.07C314.269 251.645 314.184 251.22 315.119 250.626C315.969 250.116 316.394 250.37 316.65 250.795" fill="#3913B8"/>
<path d="M315.63 253.09C315.374 252.665 315.289 252.241 316.225 251.646C317.075 251.136 317.5 251.391 317.755 251.816" fill="#3913B8"/>
<path d="M316.734 254.195C316.478 253.77 316.393 253.345 317.329 252.751C318.179 252.24 318.604 252.496 318.859 252.921" fill="#3913B8"/>
<path d="M318.011 248.67C317.756 248.245 317.67 247.82 318.606 247.225C319.456 246.715 319.882 246.97 320.136 247.395" fill="#3913B8"/>
<path d="M319.116 249.775C318.861 249.35 318.776 248.925 319.711 248.33C320.562 247.82 320.987 248.075 321.242 248.5" fill="#3913B8"/>
<path d="M320.221 250.794C319.965 250.369 319.88 249.945 320.816 249.35C321.666 248.84 322.091 249.095 322.346 249.52" fill="#3913B8"/>
<path d="M321.324 251.899C321.069 251.474 320.984 251.049 321.919 250.454C322.769 249.945 323.194 250.199 323.45 250.624" fill="#3913B8"/>
<path d="M322.685 246.375C322.43 245.95 322.346 245.525 323.28 244.931C324.131 244.421 324.556 244.675 324.811 245.1" fill="#3913B8"/>
<path d="M323.793 247.48C323.537 247.055 323.453 246.63 324.388 246.036C325.238 245.526 325.663 245.781 325.918 246.205" fill="#3913B8"/>
<path d="M324.812 248.501C324.557 248.076 324.472 247.651 325.408 247.056C326.257 246.546 326.682 246.801 326.938 247.226" fill="#3913B8"/>
<path d="M325.916 249.605C325.661 249.18 325.577 248.755 326.511 248.16C327.362 247.65 327.787 247.905 328.042 248.33" fill="#3913B8"/>
<path d="M327.279 244.082C327.024 243.657 326.938 243.232 327.874 242.638C328.724 242.127 329.15 242.383 329.405 242.808" fill="#3913B8"/>
<path d="M328.385 245.186C328.13 244.762 328.044 244.337 328.98 243.742C329.83 243.232 330.255 243.487 330.511 243.912" fill="#3913B8"/>
<path d="M329.49 246.207C329.235 245.783 329.15 245.358 330.085 244.763C330.936 244.253 331.361 244.508 331.616 244.933" fill="#3913B8"/>
<path d="M330.592 247.312C330.337 246.887 330.253 246.462 331.187 245.867C332.038 245.357 332.463 245.612 332.718 246.037" fill="#3913B8"/>
<path d="M331.867 241.787C331.611 241.362 331.526 240.938 332.462 240.343C333.312 239.833 333.737 240.088 333.991 240.513" fill="#3913B8"/>
<path d="M332.975 242.891C332.72 242.466 332.635 242.041 333.57 241.447C334.42 240.937 334.846 241.192 335.101 241.617" fill="#3913B8"/>
<path d="M334.081 243.912C333.825 243.487 333.741 243.062 334.676 242.467C335.526 241.957 335.951 242.212 336.206 242.637" fill="#3913B8"/>
<path d="M335.181 245.017C334.926 244.592 334.841 244.167 335.777 243.572C336.627 243.062 337.052 243.317 337.307 243.742" fill="#3913B8"/>
<path d="M336.546 239.493C336.291 239.068 336.206 238.643 337.141 238.048C337.991 237.538 338.416 237.793 338.672 238.218" fill="#3913B8"/>
<path d="M337.566 240.598C337.31 240.173 337.226 239.748 338.161 239.153C339.011 238.643 339.436 238.898 339.691 239.323" fill="#3913B8"/>
<path d="M338.672 241.617C338.416 241.193 338.331 240.768 339.267 240.173C340.117 239.663 340.542 239.918 340.797 240.343" fill="#3913B8"/>
<path d="M339.78 242.722C339.525 242.298 339.44 241.873 340.375 241.278C341.225 240.768 341.651 241.023 341.906 241.448" fill="#3913B8"/>
<path d="M274.649 278.414L217.255 287.338L217.001 285.468C216.66 283.428 218.106 281.474 220.147 281.134L270.058 273.4C272.098 273.061 274.054 274.505 274.394 276.545L274.649 278.414Z" fill="#3913B8"/>
<path d="M189.11 383.54L97.1107 370.197C94.7305 370.197 92.7747 368.413 92.7747 366.288V347.166C92.7747 341.557 97.7911 336.968 103.998 336.968H186.22C198.378 336.968 208.157 345.891 208.157 356.854V366.288C208.071 368.413 191.491 383.54 189.11 383.54Z" fill="#B5CDFB"/>
<path d="M108.422 197.424L125.343 354.221L85.6346 357.28L82.2339 233.118L69.3948 206.178L93.5426 193.685L108.422 197.424Z" fill="#B5CDFB"/>
<path d="M46.8599 167.17C46.8599 167.17 73.3883 151.704 85.2072 155.527C97.026 159.352 102.128 163.092 104.849 174.819L108.42 197.425L78.3199 207.708L49.8358 173.205L46.8599 167.17Z" fill="#9F8AFF"/>
<path d="M79.4256 357.109C82.6566 328.13 81.2111 298.98 75.3442 270.51C69.1373 240.51 57.9987 211.361 42.0987 184.336C38.1023 177.537 42.0987 168.784 49.9211 167.424C50.0062 167.424 50.0912 167.424 50.1762 167.34C54.9377 166.49 59.6142 168.784 61.995 172.948C78.3202 202.268 89.1184 234.307 93.9649 267.28C98.1319 295.666 97.9611 324.9 93.2853 353.795C92.0099 361.783 78.5753 364.673 79.4256 357.109Z" fill="#B5CDFB"/>
<path d="M78.3231 207.707L58.7668 217.31C54.0053 206.007 48.4785 194.959 42.1865 184.251C38.1903 177.453 42.1865 168.699 50.009 167.34C50.094 167.34 50.1791 167.34 50.2641 167.34C54.9406 166.49 59.7021 168.784 62.0829 172.948C68.2899 184.166 73.7316 195.724 78.3231 207.707Z" fill="#9F8AFF"/>
<path d="M189.45 383.541H81.9757C79.765 383.541 78.0645 381.756 78.0645 379.631V360.51C78.0645 354.9 82.6559 350.312 88.2674 350.312H173.465C184.433 350.312 193.361 359.235 193.361 370.198V379.631C193.446 381.756 191.661 383.541 189.45 383.541Z" fill="#B5CDFB"/>
<path opacity="0.4" d="M93.8265 350.311H173.466C184.435 350.311 193.363 359.235 193.363 370.198V379.631C193.447 381.755 191.662 383.539 189.451 383.539H81.977C79.7662 383.539 78.0657 381.755 78.0657 379.631V360.508C78.0657 358.516 78.6454 356.652 79.6445 355.076C82.5866 326.767 81.0739 298.315 75.3442 270.51C69.1373 240.51 57.9987 211.361 42.0987 184.336C38.1023 177.537 42.0987 168.784 49.9211 167.424C50.0062 167.424 50.0912 167.424 50.1762 167.34C54.9377 166.49 59.6142 168.784 61.9949 172.948C78.3202 202.268 89.1184 234.307 93.9649 267.28C97.9644 294.525 97.9678 322.553 93.8265 350.311Z" fill="white"/>
<path d="M91.4898 467.08C91.3199 467.08 91.15 466.91 91.0646 466.74C90.9801 466.485 91.15 466.315 91.4052 466.23C98.2922 464.955 103.819 461.981 107.476 457.647C109.091 455.777 111.726 452.038 111.472 450.168C109.686 451.698 107.73 452.973 106.795 452.292C106.455 452.123 106.285 451.698 106.2 451.188C106.115 450.423 106.285 449.573 106.71 449.064C107.22 448.384 108.24 448.043 109.346 448.043C110.281 448.043 111.131 448.384 111.642 448.809C112.322 448.214 113.002 447.534 113.682 446.768C116.573 443.709 124.225 435.636 121.59 426.967C120.654 423.823 118.529 421.019 116.063 419.064C115.468 419.574 114.873 419.999 114.107 420.339C111.131 421.783 107.22 421.614 105.264 420.764C104.584 420.423 104.244 420.084 104.159 419.659C104.074 419.319 104.159 418.894 104.414 418.469C105.095 417.364 106.965 416.259 108.58 415.92C110.876 415.409 113.598 416.344 115.978 418.044C120.315 413.795 120.399 405.296 120.399 404.191C120.315 393.994 113.257 386.77 110.196 384.136C110.026 383.965 110.026 383.711 110.111 383.54C110.196 383.37 110.536 383.37 110.706 383.456C113.852 386.175 121.165 393.569 121.165 404.191C121.165 405.976 120.994 414.22 116.573 418.554C119.124 420.594 121.335 423.568 122.27 426.797C124.991 435.976 117.083 444.22 114.107 447.364C113.512 448.043 112.747 448.809 111.981 449.489C113.002 451.868 109.176 456.627 107.985 458.072C104.33 462.661 98.5474 465.721 91.4898 467.08ZM109.176 448.978C108.326 448.978 107.645 449.233 107.305 449.658C107.05 449.998 106.88 450.593 106.965 451.103C106.965 451.358 107.135 451.528 107.22 451.613C107.73 451.953 109.176 451.018 111.047 449.489C110.621 449.148 110.026 448.978 109.346 448.978C109.176 448.978 109.176 448.978 109.176 448.978ZM109.941 416.769C109.516 416.769 109.176 416.769 108.751 416.854C107.135 417.194 105.604 418.214 105.095 419.064C104.925 419.234 104.925 419.489 104.925 419.574C104.925 419.744 105.179 419.914 105.604 420.169C107.135 420.933 110.876 421.189 113.767 419.828C114.362 419.574 114.873 419.234 115.383 418.809C113.598 417.449 111.642 416.769 109.941 416.769Z" fill="#3913B8"/>
<path d="M178.107 467.08C178.021 467.08 178.021 467.08 178.107 467.08C170.964 465.721 165.268 462.661 161.526 458.242C160.25 456.797 156.509 452.038 157.529 449.658C156.765 448.894 156 448.129 155.404 447.534C152.428 444.389 144.521 436.061 147.241 426.968C148.177 423.738 150.387 420.764 152.938 418.724C148.602 414.305 148.347 406.146 148.347 404.362C148.431 393.824 155.659 386.345 158.805 383.625C158.975 383.456 159.23 383.456 159.4 383.711C159.571 383.966 159.571 384.136 159.315 384.305C156.254 386.94 149.197 394.163 149.112 404.362C149.112 405.467 149.197 413.965 153.533 418.214C155.914 416.514 158.635 415.665 160.931 416.089C162.631 416.43 164.417 417.534 165.097 418.639C165.352 419.064 165.437 419.489 165.352 419.829C165.268 420.254 164.842 420.679 164.247 420.934C162.291 421.869 158.295 421.954 155.404 420.509C154.724 420.169 154.044 419.744 153.449 419.234C150.982 421.189 148.857 423.993 147.922 427.138C145.371 435.806 152.938 443.88 155.829 446.939C156.509 447.704 157.19 448.384 157.87 448.978C158.38 448.469 159.23 448.214 160.166 448.214C161.271 448.214 162.291 448.553 162.801 449.234C163.226 449.828 163.396 450.594 163.312 451.358C163.226 451.868 162.971 452.208 162.717 452.463C161.696 453.143 159.825 451.868 158.04 450.339C157.699 452.123 160.421 455.863 162.036 457.817C165.693 462.066 171.219 465.041 178.107 466.401C178.362 466.485 178.446 466.655 178.446 466.91C178.446 466.995 178.276 467.08 178.107 467.08ZM158.635 449.489C160.506 451.103 161.951 451.953 162.461 451.613C162.547 451.528 162.631 451.358 162.717 451.103C162.801 450.594 162.631 449.998 162.376 449.658C162.036 449.234 161.271 448.894 160.421 448.978C159.655 448.978 158.975 449.149 158.635 449.489ZM154.214 418.724C154.724 419.149 155.234 419.489 155.829 419.744C158.72 421.104 162.376 420.849 163.992 420.084C164.417 419.914 164.672 419.659 164.672 419.489C164.672 419.404 164.672 419.149 164.502 418.979C163.992 418.214 162.461 417.109 160.846 416.769C158.72 416.43 156.339 417.194 154.214 418.724Z" fill="#3913B8"/>
<path d="M80.7011 368.753C80.616 368.753 80.446 368.753 80.3609 368.668C80.1909 368.498 80.1909 368.243 80.3609 368.073L91.6696 356.771C91.8395 356.6 92.0947 356.6 92.2646 356.771C92.4345 356.941 92.4345 357.196 92.2646 357.366L80.9562 368.668C80.9562 368.753 80.7861 368.753 80.7011 368.753Z" fill="#3913B8"/>
<path d="M160.457 386.004C160.372 386.004 160.202 386.004 160.116 385.919C159.947 385.749 159.947 385.494 160.116 385.324L171.426 374.022C171.595 373.852 171.851 373.852 172.021 374.022C172.19 374.192 172.19 374.447 172.021 374.616L160.711 385.835C160.627 385.919 160.542 386.004 160.457 386.004Z" fill="#3913B8"/>
<path d="M152.973 386.004C152.889 386.004 152.719 386.004 152.634 385.919C152.464 385.749 152.464 385.494 152.634 385.324L163.942 374.022C164.112 373.852 164.367 373.852 164.537 374.022C164.708 374.192 164.708 374.447 164.537 374.616L153.229 385.919C153.229 385.919 153.143 386.004 152.973 386.004Z" fill="#3913B8"/>
<path d="M138.178 386.004C138.093 386.004 137.923 386.004 137.838 385.919C137.668 385.749 137.668 385.494 137.838 385.324L149.147 374.022C149.316 373.852 149.572 373.852 149.742 374.022C149.911 374.192 149.911 374.447 149.742 374.616L138.433 385.919C138.348 385.919 138.263 386.004 138.178 386.004Z" fill="#3913B8"/>
<path d="M130.698 386.004C130.613 386.004 130.443 386.004 130.358 385.919C130.188 385.749 130.188 385.494 130.358 385.324L141.667 374.022C141.836 373.852 142.092 373.852 142.262 374.022C142.431 374.192 142.431 374.447 142.262 374.616L130.953 385.919C130.953 385.919 130.783 386.004 130.698 386.004Z" fill="#3913B8"/>
<path d="M123.298 386.004C123.213 386.004 123.043 386.004 122.957 385.919C122.787 385.749 122.787 385.494 122.957 385.324L134.266 374.022C134.436 373.852 134.692 373.852 134.861 374.022C135.031 374.192 135.031 374.447 134.861 374.616L123.552 385.919C123.468 385.919 123.382 386.004 123.298 386.004Z" fill="#3913B8"/>
<path d="M115.902 386.004C115.817 386.004 115.647 386.004 115.562 385.919C115.392 385.749 115.392 385.494 115.562 385.324L126.87 374.022C127.041 373.852 127.295 373.852 127.466 374.022C127.636 374.192 127.636 374.447 127.466 374.616L116.157 385.919C116.072 385.919 115.987 386.004 115.902 386.004Z" fill="#3913B8"/>
<path d="M108.419 386.004C108.334 386.004 108.163 386.004 108.079 385.919C107.909 385.749 107.909 385.494 108.079 385.324L119.387 374.022C119.557 373.852 119.812 373.852 119.982 374.022C120.152 374.192 120.152 374.447 119.982 374.616L108.674 385.919C108.674 385.919 108.504 386.004 108.419 386.004Z" fill="#3913B8"/>
<path d="M101.022 386.004C100.936 386.004 100.766 386.004 100.682 385.919C100.511 385.749 100.511 385.494 100.682 385.324L111.99 374.022C112.16 373.852 112.415 373.852 112.585 374.022C112.755 374.192 112.755 374.447 112.585 374.616L101.277 385.919C101.191 385.919 101.107 386.004 101.022 386.004Z" fill="#3913B8"/>
<path d="M93.5388 386.004C93.4535 386.004 93.2836 386.004 93.1982 385.919C93.0283 385.749 93.0283 385.494 93.1982 385.324L104.507 374.022C104.677 373.852 104.932 373.852 105.102 374.022C105.272 374.192 105.272 374.447 105.102 374.616L93.7941 385.919C93.7941 385.919 93.7087 386.004 93.5388 386.004Z" fill="#3913B8"/>
<path d="M86.1419 386.004C86.0565 386.004 85.8866 386.004 85.8012 385.919C85.6314 385.749 85.6314 385.494 85.8012 385.324L97.1104 374.022C97.2803 373.852 97.5355 373.852 97.7054 374.022C97.8753 374.192 97.8753 374.447 97.7054 374.616L86.3971 385.919C86.3971 385.919 86.2264 386.004 86.1419 386.004Z" fill="#3913B8"/>
<path d="M81.8907 372.917C81.8056 372.917 81.6357 372.917 81.5506 372.832C81.3806 372.662 81.3806 372.408 81.5506 372.237L92.8593 360.934C93.0292 360.765 93.2845 360.765 93.4544 360.934C93.6243 361.104 93.6243 361.359 93.4544 361.529L82.1458 372.832C82.0607 372.917 81.9757 372.917 81.8907 372.917Z" fill="#3913B8"/>
<path d="M80.7011 379.802C80.616 379.802 80.446 379.802 80.3609 379.716C80.1909 379.547 80.1909 379.292 80.3609 379.122L91.6696 367.818C91.8395 367.648 92.0947 367.648 92.2646 367.818C92.4345 367.989 92.4345 368.243 92.2646 368.414L80.9562 379.716C80.9562 379.716 80.7861 379.802 80.7011 379.802Z" fill="#3913B8"/>
<path d="M81.8907 383.965C81.8056 383.965 81.6357 383.965 81.5506 383.88C81.3806 383.71 81.3806 383.455 81.5506 383.285L92.8593 371.983C93.0292 371.813 93.2845 371.813 93.4544 371.983C93.6243 372.153 93.6243 372.408 93.4544 372.578L82.1458 383.88C82.0607 383.88 81.9757 383.965 81.8907 383.965Z" fill="#3913B8"/>
<path d="M145.697 385.857C145.613 385.857 145.442 385.857 145.358 385.772C145.188 385.602 145.188 385.347 145.358 385.177L156.666 373.874C156.836 373.704 157.091 373.704 157.261 373.874C157.432 374.044 157.432 374.299 157.261 374.469L145.953 385.772C145.867 385.772 145.783 385.857 145.697 385.857Z" fill="#3913B8"/>
<path d="M55.2811 219.436C55.1111 219.436 54.9411 219.351 54.9411 219.181C54.856 219.011 54.9411 218.756 55.1111 218.586L81.2144 205.838C81.3845 205.754 81.6396 205.838 81.8097 206.008C81.8947 206.179 81.8097 206.433 81.6396 206.604L55.5362 219.351C55.3661 219.351 55.3661 219.436 55.2811 219.436Z" fill="#3913B8"/>
<path d="M71.7732 192.58C71.6032 192.58 71.4331 192.496 71.3481 192.326C68.3722 185.782 65.0561 179.323 61.5699 173.034C59.3592 169.04 54.7678 166.831 50.1763 167.68C50.0913 167.68 50.0063 167.68 49.9213 167.765C46.3501 168.36 43.4592 170.654 41.9286 173.884C40.3982 177.198 40.5683 180.853 42.4388 183.997C42.5239 184.167 42.5239 184.422 42.2688 184.592C42.0987 184.677 41.8437 184.677 41.6736 184.422C39.718 181.022 39.4629 177.028 41.1635 173.544C42.7789 169.975 45.925 167.595 49.8362 166.915C49.9213 166.915 50.0063 166.915 50.0913 166.915C55.0229 166.065 59.9545 168.445 62.3352 172.694C65.8213 178.983 69.1373 185.442 72.1133 191.985C72.1983 192.241 72.1133 192.41 71.9432 192.58C71.9432 192.58 71.8582 192.58 71.7732 192.58Z" fill="#3913B8"/>
<path d="M252.625 201.844C252.625 201.844 270.565 188.926 275.922 185.952C281.363 183.063 295.138 181.958 305.086 185.017C306.957 185.612 299.559 189.862 297.603 190.116C297.603 190.116 328.554 189.096 328.299 192.496C328.129 195.895 322.516 198.02 314.439 199.125C306.362 200.229 286.55 203.119 276.347 201.844C270.395 207.283 257.046 222.58 257.046 222.58L246.757 208.133L252.625 201.844Z" fill="#F8BCBF"/>
<path d="M195.57 267.197C195.57 267.197 218.783 256.148 226.52 258.273C229.751 259.123 234.938 260.228 239.614 263.372C246.077 267.707 247.011 273.571 244.206 275.015C241.995 276.12 231.112 273.06 231.112 273.06C231.112 273.06 226.435 275.355 222.609 278.415C219.718 280.709 204.923 281.899 204.923 281.899C189.703 267.111 195.57 267.197 195.57 267.197Z" fill="#F8BCBF"/>
<path d="M217.085 246.716C214.534 246.716 211.983 246.291 209.516 245.441L150.423 225.47C142.43 222.835 152.719 218.331 155.354 210.343C157.991 202.354 142.685 186.632 150.678 189.267L215.638 215.357L253.051 194.281C259.853 189.351 277.878 213.912 271.077 218.841L230.603 242.127C226.692 245.186 221.931 246.716 217.085 246.716Z" fill="#3913B8"/>
<path d="M182.991 121.618C184.266 120.853 193.109 113.374 192.089 110.655C191.409 108.785 187.328 109.465 186.647 107.34C186.137 105.811 188.008 104.196 189.198 102.411C192.855 97.3126 190.644 85.1593 185.712 83.7147C167.347 78.3607 153.742 101.136 153.742 101.136C155.443 97.8221 155.443 94.5079 153.742 92.8935C151.532 90.7688 147.025 92.6383 146.43 92.8935C138.437 96.2076 136.907 107.001 134.186 106.576C132.485 106.235 132.995 102.157 130.445 101.136C128.148 100.202 124.238 102.071 123.132 104.876C121.431 109.21 127.214 113.799 125.683 116.179C124.918 117.368 122.367 117.964 115.309 115.924C111.654 131.136 118.455 145.498 120.411 150.853C122.026 155.526 124.323 161.9 129.339 162.835C132.995 163.516 137.842 161.22 139.202 157.651C141.158 152.637 134.951 148.643 135.461 140.229C135.631 136.575 137.502 136.321 138.522 134.621C150.171 133.686 174.914 126.717 182.991 121.618Z" fill="#3913B8"/>
<path d="M129.252 193.175C129.252 193.175 138.35 163.515 138.69 152.722C138.69 152.722 126.361 156.547 127.466 148.898C128.572 141.165 138.69 143.034 138.69 143.034C138.265 139.294 139.115 135.64 141.241 132.071C141.241 132.071 159.181 131.306 180.183 122.978L184.52 154.082L179.418 155.101C179.418 155.101 175.336 176.093 173.126 176.857C170.915 177.623 157.651 177.877 157.651 177.877L156.545 210.171C156.461 210.171 133.163 205.752 129.252 193.175Z" fill="#F8BCBF"/>
<path d="M131.72 181.023C126.448 187.736 73.8165 224.025 105.022 312.493H173.809C173.809 312.493 178.485 249.435 176.444 238.642C175.169 231.673 175.084 203.288 174.829 201.589C174.488 199.294 159.098 193.09 157.058 195.47L156.633 203.458C142.518 197.934 132.485 180.173 131.72 181.023Z" fill="#3913B8"/>
<path d="M145.921 306.546C145.581 306.546 145.24 306.546 144.901 306.546C140.735 306.376 133.082 304.421 129.256 293.203C128.491 290.824 127.64 287.679 126.79 283.685C125.515 277.651 123.984 269.323 122.369 258.955C119.648 241.618 117.522 224.621 117.437 223.941C116.417 215.612 122.283 207.964 130.616 206.944C138.949 205.924 146.601 211.788 147.621 220.117C149.833 237.793 153.574 263.204 155.955 276.206C166.413 271.447 182.653 266.688 195.747 260.144C203.314 256.405 216.834 283.685 209.266 287.425C159.27 312.325 150.002 306.546 145.921 306.546Z" fill="#3913B8"/>
<path d="M145.921 306.546C145.581 306.546 145.24 306.546 144.901 306.546C140.735 306.376 133.082 304.421 129.256 293.203C128.491 290.824 127.64 287.679 126.79 283.685C125.515 277.651 123.984 269.323 122.369 258.955C119.648 241.618 117.522 224.621 117.437 223.941C116.417 215.612 122.283 207.964 130.616 206.944C138.949 205.924 146.601 211.788 147.621 220.117C149.833 237.793 153.574 263.204 155.955 276.206C166.413 271.447 182.653 266.688 195.747 260.144C203.314 256.405 216.834 283.685 209.266 287.425C159.27 312.325 150.002 306.546 145.921 306.546Z" fill="black" fill-opacity="0.28"/>
<path d="M155.952 283.004C155.696 283.004 155.526 282.749 155.526 282.494C156.377 275.866 147.449 220.54 144.303 212.807C142.857 209.238 136.055 208.983 130.613 209.322C124.577 209.747 118.88 211.107 118.795 211.107C118.539 211.192 118.369 211.022 118.284 210.767C118.2 210.513 118.369 210.342 118.625 210.258C119.56 210.002 142.007 204.819 145.153 212.467C148.044 219.605 157.397 274.845 156.377 282.579C156.377 282.919 156.122 283.004 155.952 283.004Z" fill="#060606"/>
<path d="M150.681 280.114C150.511 280.114 150.427 280.029 150.341 279.944C150.256 279.775 150.256 279.52 150.511 279.35C150.597 279.264 163.436 271.616 189.454 262.013C189.709 261.927 189.879 262.013 189.964 262.268C190.049 262.522 189.964 262.693 189.709 262.777C163.775 272.381 151.106 280.029 150.936 280.114C150.852 280.029 150.767 280.114 150.681 280.114Z" fill="#060606"/>
<path d="M144.558 308.67C136.141 308.67 128.913 295.837 123.132 270.597C118.795 251.646 116.839 232.354 116.839 232.099C116.839 231.844 117.01 231.674 117.18 231.674C117.435 231.674 117.605 231.844 117.605 232.014C117.689 232.779 125.258 308.67 144.728 307.82C168.621 306.716 205.098 286.149 205.523 285.894C205.693 285.809 205.948 285.809 206.118 286.064C206.288 286.319 206.203 286.489 205.948 286.659C205.608 286.829 168.876 307.566 144.814 308.67C144.814 308.67 144.644 308.67 144.558 308.67Z" fill="#060606"/>
<path d="M168.791 245.951L167.941 244.082C167.346 242.807 166.41 240.768 165.56 240.682C165.135 240.682 164.709 241.192 164.2 242.127L163.689 243.232L163.434 242.042C163.009 240.088 163.094 238.133 163.094 236.263C163.094 235.753 163.094 235.243 163.094 234.733C163.094 234.478 163.264 234.308 163.519 234.308C163.775 234.308 163.944 234.478 163.944 234.733C163.944 235.243 163.944 235.753 163.944 236.263C163.944 237.793 163.944 239.322 164.114 240.768C164.625 240.172 165.05 239.832 165.645 239.918C166.751 239.918 167.601 241.277 168.28 242.637C168.451 241.787 168.791 241.192 169.216 240.852C169.981 240.257 171.001 240.597 171.937 240.852C173.212 241.277 173.977 241.447 174.488 240.512C174.573 240.343 174.828 240.257 175.083 240.343C175.253 240.427 175.338 240.682 175.253 240.937C174.402 242.552 172.873 242.042 171.682 241.702C170.917 241.447 170.152 241.193 169.641 241.532C169.216 241.872 168.961 242.722 168.876 244.166L168.791 245.951Z" fill="#B5CDFB"/>
<path d="M113.777 280.2C113.607 280.2 113.352 280.03 113.352 279.86C113.097 278.33 112.077 276.715 111.141 275.27C110.716 274.591 110.291 273.995 109.951 273.401C109.866 273.231 109.951 272.976 110.121 272.806C110.291 272.721 110.546 272.806 110.716 272.976C111.056 273.57 111.396 274.166 111.821 274.761C112.842 276.29 113.947 277.99 114.202 279.689C114.288 279.944 114.117 280.2 113.777 280.2C113.863 280.2 113.863 280.2 113.777 280.2Z" fill="#9F8AFF"/>
<path d="M119.051 277.565C118.881 277.565 118.626 277.396 118.626 277.225C118.371 274.931 117.095 272.636 115.055 270.597C114.885 270.427 114.885 270.172 115.055 270.002C115.225 269.831 115.48 269.831 115.65 270.002C117.776 272.127 119.136 274.675 119.476 277.141C119.561 277.31 119.391 277.565 119.051 277.565C119.136 277.565 119.136 277.565 119.051 277.565Z" fill="#9F8AFF"/>
<path d="M172.195 163.006C172.195 163.006 170.07 169.72 165.648 169.38C162.502 169.125 161.737 163.771 161.567 163.601L172.195 163.006Z" fill="white"/>
<path d="M163.436 148.303C164.376 148.303 165.137 147.542 165.137 146.604C165.137 145.665 164.376 144.904 163.436 144.904C162.497 144.904 161.736 145.665 161.736 146.604C161.736 147.542 162.497 148.303 163.436 148.303Z" fill="#464646"/>
<path d="M181.293 143.714C182.232 143.714 182.994 142.953 182.994 142.014C182.994 141.076 182.232 140.315 181.293 140.315C180.354 140.315 179.593 141.076 179.593 142.014C179.593 142.953 180.354 143.714 181.293 143.714Z" fill="#464646"/>
<path d="M157.142 144.564C156.887 144.564 156.632 144.48 156.462 144.224C156.122 143.884 156.207 143.289 156.547 143.034L165.305 135.64C165.644 135.301 166.24 135.386 166.495 135.726C166.835 136.065 166.75 136.661 166.41 136.915L157.652 144.309C157.567 144.48 157.397 144.564 157.142 144.564Z" fill="#464646"/>
<path d="M187.753 140.316C187.668 140.316 187.583 140.316 187.497 140.316L178.06 137.596C177.635 137.426 177.379 137.001 177.465 136.576C177.635 136.151 178.06 135.896 178.485 135.981L187.923 138.7C188.348 138.871 188.603 139.296 188.518 139.72C188.433 140.061 188.093 140.316 187.753 140.316Z" fill="#464646"/>
<path d="M155.527 140.825C155.102 140.825 154.677 140.485 154.677 140.061C154.677 139.55 155.018 139.211 155.443 139.125L165.05 138.531C165.476 138.531 165.901 138.871 165.986 139.296C165.986 139.805 165.646 140.146 165.22 140.23L155.527 140.825C155.613 140.825 155.613 140.825 155.527 140.825Z" fill="#464646"/>
<path d="M173.64 157.057C173.47 157.057 173.3 156.887 173.215 156.717C173.129 156.462 173.3 156.292 173.555 156.207L182.993 154.252C183.248 154.167 183.418 154.338 183.503 154.592C183.588 154.847 183.418 155.017 183.163 155.102L173.725 157.057C173.64 157.057 173.64 157.057 173.64 157.057Z" fill="#464646"/>
<path d="M133.423 149.833C133.338 149.833 133.253 149.833 133.168 149.748C132.998 149.578 132.913 149.323 133.083 149.153C133.168 149.068 134.443 147.369 137.419 147.963C137.674 148.048 137.76 148.219 137.76 148.473C137.674 148.728 137.504 148.813 137.249 148.813C134.868 148.303 133.848 149.578 133.848 149.663C133.678 149.833 133.508 149.833 133.423 149.833Z" fill="#464646"/>
<path d="M136.398 151.278C136.143 151.278 135.973 151.023 135.973 150.768C136.057 149.834 134.272 148.134 133.081 147.284C132.911 147.114 132.827 146.859 132.997 146.689C133.167 146.519 133.422 146.434 133.592 146.604C133.932 146.859 136.993 149.154 136.823 150.854C136.823 151.108 136.652 151.278 136.398 151.278Z" fill="#464646"/>
<path d="M147.959 128.927L144.643 146.264C144.643 146.264 136.821 143.12 133.419 142.865C127.893 139.125 138.521 126.377 138.521 126.377L147.959 128.927Z" fill="#3913B8"/>
<path d="M173.977 113.461L173.212 113.121C173.807 111.846 175.083 111.166 176.188 110.571C176.528 110.401 176.953 110.146 177.293 109.976C181.8 107.002 187.666 102.838 192.598 97.5687C196.169 93.8296 199.23 89.8354 198.125 83.0364C197.954 82.1015 197.529 81.5915 196.679 81.3366C192.768 80.2318 182.735 86.2661 179.929 89.4949L179.249 88.9855C182.225 85.5007 192.428 79.297 196.85 80.5718C198.04 80.9117 198.72 81.7615 198.976 82.9511C200.166 90.0897 196.934 94.2545 193.279 98.1634C188.261 103.518 182.395 107.682 177.803 110.741C177.464 110.996 177.039 111.166 176.698 111.421C175.592 111.846 174.488 112.441 173.977 113.461Z" fill="#9F8AFF"/>
<path d="M243.188 265.582C243.188 265.582 243.104 265.582 243.188 265.582C242.338 265.327 241.063 264.902 239.532 264.392C236.301 263.203 231.795 261.587 229.669 261.587C229.499 261.587 229.329 261.417 229.329 261.248C229.329 261.078 229.499 260.907 229.669 260.907C231.965 260.907 236.301 262.437 239.787 263.712C241.232 264.222 242.508 264.732 243.274 264.902C243.444 264.987 243.528 265.157 243.528 265.327C243.444 265.497 243.358 265.582 243.188 265.582Z" fill="#3913B8"/>
<path d="M246.93 271.276C246.844 271.276 246.844 271.276 246.93 271.276C246.079 271.021 244.974 270.596 243.698 270.086C240.722 268.897 236.556 267.197 233.41 267.197C233.24 267.197 233.07 267.027 233.07 266.857C233.07 266.687 233.24 266.517 233.41 266.517C236.726 266.517 240.892 268.217 243.954 269.406C245.229 269.916 246.249 270.341 247.014 270.511C247.185 270.596 247.269 270.766 247.269 270.936C247.185 271.191 247.014 271.276 246.93 271.276Z" fill="#3913B8"/>
<path d="M179.334 314.193C179.334 314.193 253.988 309.434 257.984 318.612C261.98 327.791 262.004 418.145 262.004 418.145L240.389 424.247L231.626 333.485L179.334 314.193Z" fill="#9F8AFF"/>
<path d="M179.334 314.193C179.334 314.193 253.988 309.434 257.984 318.612C261.98 327.791 262.004 418.145 262.004 418.145L240.389 424.247L231.626 333.485L179.334 314.193Z" fill="white" fill-opacity="0.43"/>
<path d="M261.98 417.449C261.98 417.449 261.98 421.018 261.98 422.463C261.98 425.778 261.98 427.647 261.98 427.647L239.958 425.496L239.533 417.193L261.98 417.449Z" fill="#F9C5C8"/>
<path d="M261.981 424.163V437.93L286.043 448.383C288.084 449.233 287.404 452.207 285.278 452.207L241.574 451.953L239.959 424.333L261.981 424.163Z" fill="#F2F1F8"/>
<path d="M295.396 462.321H226.354C224.909 462.321 223.803 461.217 223.803 459.771C223.803 458.326 224.909 457.222 226.354 457.222H295.396C296.841 457.222 297.947 458.326 297.947 459.771C297.947 461.217 296.756 462.321 295.396 462.321Z" fill="#3913B8"/>
<path d="M252.626 458.072L267.675 439.29C267.675 439.29 288.678 447.279 295.054 452.208C298.285 454.758 296.33 459.941 292.249 459.772L252.626 458.072Z" fill="#3913B8"/>
<path fill-rule="evenodd" clip-rule="evenodd" d="M296.246 457.358C297.253 457.696 297.947 458.627 297.947 459.772C297.947 461.216 296.756 462.32 295.396 462.32H226.354C224.909 462.32 223.803 461.216 223.803 459.772C223.803 458.326 224.909 457.222 226.354 457.222H253.307L267.676 439.29C267.676 439.29 288.677 447.279 295.055 452.208C296.79 453.577 297.029 455.706 296.246 457.358Z" fill="white" fill-opacity="0.19"/>
<path d="M105.021 312.493V330.084C105.021 340.282 113.355 348.611 123.558 348.611H202.888C207.139 348.611 210.54 352.01 210.54 356.259V457.561C210.54 460.365 212.752 462.575 215.557 462.575H271.845C273.97 462.575 282.048 459.856 280.348 458.581L240.64 437.675L238.769 337.988C238.599 326.94 230.096 317.846 219.128 316.827L173.809 312.577H105.021V312.493Z" fill="#9F8AFF"/>
<path d="M240.641 424.163H210.541V429.092H240.641V424.163Z" fill="#F8B8BB"/>
<path d="M210.541 429.092V457.562C210.541 460.366 212.752 462.576 215.558 462.576H271.846C273.971 462.576 282.049 459.856 280.349 458.582L240.641 437.675V429.092H210.541Z" fill="white"/>
<path d="M240.639 424.588H210.539C210.284 424.588 210.114 424.417 210.114 424.163C210.114 423.908 210.284 423.738 210.539 423.738H240.639C240.894 423.738 241.064 423.908 241.064 424.163C241.064 424.417 240.894 424.588 240.639 424.588Z" fill="#3913B8"/>
<path d="M240.639 429.942H210.539C210.284 429.942 210.114 429.771 210.114 429.517C210.114 429.262 210.284 429.092 210.539 429.092H240.639C240.894 429.092 241.064 429.262 241.064 429.517C241.064 429.771 240.894 429.942 240.639 429.942Z" fill="#3913B8"/>
<path d="M262.066 417.704H240.64C240.384 417.704 240.214 417.534 240.214 417.279C240.214 417.024 240.384 416.854 240.64 416.854H261.981C262.236 416.854 262.406 417.024 262.406 417.279C262.406 417.534 262.236 417.704 262.066 417.704Z" fill="#3913B8"/>
<path d="M262.066 424.588H240.64C240.384 424.588 240.214 424.417 240.214 424.163C240.214 423.908 240.384 423.738 240.64 423.738H261.981C262.236 423.738 262.406 423.908 262.406 424.163C262.406 424.417 262.236 424.588 262.066 424.588Z" fill="#3913B8"/>
<path d="M280.603 466.909H211.561C210.116 466.909 209.01 465.805 209.01 464.359C209.01 462.915 210.116 461.81 211.561 461.81H280.603C282.049 461.81 283.154 462.915 283.154 464.359C283.154 465.805 281.964 466.909 280.603 466.909Z" fill="#3913B8"/>
<path d="M237.919 462.66L252.968 443.878C252.968 443.878 273.971 451.867 280.347 456.796C283.578 459.346 281.622 464.529 277.542 464.36L237.919 462.66Z" fill="#3913B8"/>
<path d="M137.246 333.994C136.735 333.994 136.226 333.909 135.715 333.823C132.059 333.059 132.229 328.554 132.314 325.24C132.314 324.731 132.314 324.22 132.314 323.796C132.314 323.54 132.484 323.371 132.739 323.371C132.994 323.371 133.164 323.54 133.164 323.796C133.164 324.22 133.164 324.731 133.164 325.24C133.08 328.385 132.994 332.379 135.885 332.973C137.671 333.398 139.456 332.973 141.157 331.784C145.578 328.809 148.129 322.096 148.299 320.906C148.299 320.651 148.554 320.481 148.809 320.566C149.065 320.566 149.234 320.821 149.149 321.076C148.809 322.86 146.003 329.575 141.667 332.549C140.222 333.569 138.776 333.994 137.246 333.994Z" fill="#3913B8"/>
<path d="M223.548 407.506C223.293 407.506 223.123 407.336 223.123 407.081V347.337C223.123 340.793 217.851 335.524 211.304 335.524L147.109 333.655C146.854 333.655 146.684 333.485 146.684 333.23C146.684 332.975 146.938 332.805 147.109 332.805L211.304 334.674C218.276 334.674 223.973 340.368 223.973 347.337V407.081C223.973 407.251 223.803 407.506 223.548 407.506Z" fill="#3913B8"/>
<path d="M217.426 444.134C217.256 444.134 217.086 444.049 217.001 443.879C216.916 443.624 217.001 443.454 217.256 443.37C217.937 443.114 219.297 442.69 220.402 443.029C220.657 443.114 220.743 443.37 220.657 443.539C220.573 443.795 220.318 443.879 220.148 443.795C219.552 443.624 218.617 443.709 217.597 444.134C217.511 444.134 217.426 444.134 217.426 444.134Z" fill="#3913B8"/>
<path d="M218.532 447.279C218.362 447.279 218.192 447.193 218.106 447.023C218.022 446.854 218.106 446.598 218.276 446.429L218.532 446.343C219.212 446.004 219.722 445.749 220.573 445.834C220.827 445.834 220.998 446.004 220.998 446.259C220.998 446.514 220.743 446.684 220.573 446.684C219.892 446.684 219.467 446.854 218.872 447.109L218.617 447.193C218.701 447.278 218.617 447.279 218.532 447.279Z" fill="#3913B8"/>
<path d="M236.385 439.12C236.215 439.12 236.045 439.034 235.96 438.864C235.875 438.609 235.96 438.44 236.215 438.27C236.385 438.184 236.555 438.1 236.725 438.015C237.065 437.845 237.406 437.675 237.915 437.505C238.256 437.42 238.596 437.42 238.936 437.42C239.446 437.42 239.871 437.42 240.211 437.165C240.382 436.995 240.636 437.08 240.807 437.25C240.977 437.42 240.891 437.675 240.721 437.845C240.126 438.27 239.446 438.27 238.936 438.27C238.681 438.27 238.34 438.27 238.086 438.355C237.745 438.439 237.49 438.609 237.15 438.78C236.98 438.864 236.811 438.95 236.555 439.034C236.47 439.12 236.385 439.12 236.385 439.12Z" fill="#3913B8"/>
<path d="M254.415 436.825C254.244 436.825 254.074 436.739 254.074 436.57C253.99 436.4 254.074 436.145 254.244 435.975C254.415 435.89 254.585 435.805 254.755 435.635C255.18 435.295 255.689 434.955 256.285 435.041C256.54 435.125 256.625 435.295 256.625 435.55C256.54 435.805 256.37 435.89 256.115 435.89C255.945 435.805 255.605 436.06 255.265 436.314C255.094 436.485 254.84 436.655 254.669 436.739C254.585 436.825 254.499 436.825 254.415 436.825Z" fill="#3913B8"/>
<path d="M254.92 438.695C254.835 438.695 254.75 438.695 254.666 438.61C254.495 438.44 254.41 438.185 254.58 438.015C254.92 437.505 255.686 436.91 256.281 436.655C256.536 436.571 256.706 436.74 256.791 436.91C256.876 437.165 256.706 437.335 256.536 437.42C256.111 437.59 255.516 438.101 255.261 438.44C255.261 438.61 255.091 438.695 254.92 438.695Z" fill="#3913B8"/>
<path d="M175.846 233.798C175.846 233.798 175.167 219.35 172.361 215.356C172.361 215.356 186.39 234.903 186.39 237.198L175.846 233.798Z" fill="black" fill-opacity="0.81"/>
<path d="M288.168 228.784C287.828 228.784 287.488 228.698 287.148 228.613C285.277 228.018 284.086 225.554 284.172 223.599C284.172 221.219 285.957 219.52 286.807 218.755C289.358 216.375 293.27 214.676 297.351 214.336C297.691 209.577 297.691 202.183 297.776 194.024C297.861 178.813 297.946 161.646 299.817 153.742L300.667 153.912C298.797 161.646 298.711 178.813 298.626 194.024C298.541 202.098 298.541 209.407 298.201 214.251C300.667 214.166 303.133 214.676 305.428 215.866C305.684 216.036 306.023 216.205 306.279 216.375C307.639 213.911 309.51 212.211 310.36 211.361C318.693 203.543 332.892 204.648 337.058 205.158L336.974 206.008C332.892 205.498 319.033 204.478 311.04 211.956C310.19 212.722 308.404 214.421 307.129 216.8C309.765 218.585 311.976 221.305 312.656 223.515C312.911 224.449 312.911 225.214 312.571 225.724C312.231 226.319 311.465 226.829 310.445 227.084C308.999 227.338 307.469 227.084 306.534 226.319C304.833 225.044 304.919 222.749 304.919 221.644C304.919 219.945 305.343 218.5 306.023 217.141C305.768 216.971 305.428 216.8 305.173 216.63C303.047 215.525 300.667 215.016 298.286 215.1C298.116 217.055 297.946 218.5 297.606 219.35C295.905 224.024 291.569 228.784 288.168 228.784ZM297.266 215.186C293.44 215.441 289.783 217.055 287.403 219.35C286.553 220.115 285.022 221.56 285.022 223.599C285.022 225.214 285.957 227.338 287.403 227.763C290.124 228.613 294.97 224.109 296.671 219.095C296.925 218.415 297.181 217.055 297.266 215.186ZM306.618 217.735C306.023 218.925 305.684 220.285 305.684 221.815C305.684 222.749 305.684 224.789 306.959 225.809C307.724 226.404 308.999 226.659 310.19 226.404C310.955 226.234 311.465 225.894 311.72 225.469C311.89 225.129 311.89 224.534 311.72 223.854C311.211 222.155 309.255 219.52 306.618 217.735Z" fill="#3913B8"/>
<path d="M301.261 166.575C294.373 166.575 288.847 160.966 288.847 154.167C288.847 147.369 294.458 141.76 301.261 141.76C308.063 141.76 313.675 147.369 313.675 154.167C313.675 160.966 308.063 166.575 301.261 166.575ZM301.261 142.524C294.884 142.524 289.697 147.708 289.697 154.082C289.697 160.456 294.884 165.64 301.261 165.64C307.638 165.64 312.824 160.456 312.824 154.082C312.824 147.708 307.638 142.524 301.261 142.524Z" fill="#3913B8"/>
<path d="M300.157 155.357C301.191 155.357 302.029 154.521 302.029 153.488C302.029 152.456 301.191 151.618 300.157 151.618C299.125 151.618 298.287 152.456 298.287 153.488C298.287 154.521 299.125 155.357 300.157 155.357Z" fill="#3913B8"/>
<path d="M447.262 105.401C447.923 101.515 446.318 98.0009 443.679 97.5528C441.041 97.1046 438.365 99.8928 437.706 103.78C437.045 107.667 438.649 111.181 441.288 111.629C443.927 112.077 446.602 109.289 447.262 105.401Z" fill="#B5CDFB"/>
<path d="M403.04 126.973C402.786 126.973 402.701 126.888 402.701 126.803C401.51 125.443 413.414 102.752 413.499 102.497C414.775 100.883 416.56 99.6925 418.516 99.1831L445.129 92.129C447.935 91.3644 450.911 91.9592 453.206 93.7442C455.503 95.5285 456.863 98.1634 456.863 101.138V107.511C456.863 112.61 452.866 116.69 447.765 116.774L421.322 117.454C407.292 125.698 403.891 126.973 403.04 126.973ZM447.425 92.7246C446.745 92.7246 445.98 92.8091 445.214 92.9789L418.601 100.033C416.815 100.542 415.2 101.563 414.094 103.008C412.819 104.622 403.891 123.234 403.296 126.123C405.082 125.698 413.414 121.109 420.726 116.69L420.811 116.605H420.897L447.509 115.925C452.102 115.84 455.757 112.101 455.757 107.511V101.138C455.757 98.503 454.567 96.0387 452.441 94.4235C451.081 93.3193 449.295 92.7246 447.425 92.7246Z" fill="#3913B8"/>
<path d="M432.117 103.688L421.318 105.303C420.723 105.387 420.213 104.962 420.213 104.368C420.213 103.858 420.553 103.518 421.064 103.433L431.861 101.818C432.457 101.733 432.967 102.158 432.967 102.753C432.883 103.178 432.542 103.603 432.117 103.688Z" fill="#3913B8"/>
<path d="M432.117 109.296L421.318 110.91C420.723 110.996 420.213 110.571 420.213 109.976C420.213 109.466 420.553 109.126 421.064 109.041L431.861 107.426C432.457 107.341 432.967 107.766 432.967 108.361C432.883 108.786 432.542 109.211 432.117 109.296Z" fill="#3913B8"/>
</svg>
